<svg height="400pt" viewBox="-53 0 400 400.254" width="400pt" xmlns="http://www.w3.org/2000/svg">
<path d="m220.09375 6.667969h66.667969v80h-66.667969zm0 0" fill="#e9686a"/>
<g fill="#f6bf9b"><path d="m86.761719 46.667969h106.664062v160h-106.664062zm0 0"/>
<path d="m6.761719 326.667969h39.996093v66.664062h-39.996093zm0 0"/>
<path d="m233.425781 126.667969h40v106.664062h-40zm0 0"/></g>
<path d="m86.761719 46.667969h106.664062v39.996093h-106.664062zm0 0" fill="#5a6470"/>
<path d="m106.761719 106.667969h13.332031v13.332031h-13.332031zm0 0" fill="#5a6470"/>
<path d="m160.09375 106.667969h13.332031v13.332031h-13.332031zm0 0" fill="#5a6470"/>
<path d="m46.757812 233.332031h186.667969v160h-186.667969zm0 0" fill="#f4f4e6"/>
<path d="m26.761719 233.332031h20v93.335938h-40v-73.335938c0-11.042969 8.953125-20 20-20zm0 0" fill="#5a6470"/>
<path d="m253.425781 326.667969h-20v-93.335938h40v73.335938c0 11.042969-8.953125 20-20 20zm0 0" fill="#5a6470"/>
<path d="m273.425781 93.332031c0 11.046875-8.953125 20.003907-20 20.003907s-20-8.957032-20-20.003907c0-11.042969 8.953125-20 20-20s20 8.957031 20 20zm0 0" fill="#f6bf9b"/>
<path d="m140.09375 273.332031h-40v-40zm0 0" fill="#aabece"/>
<path d="m140.09375 273.332031h40v-40zm0 0" fill="#aabece"/>
<path d="m73.425781 233.332031h26.667969v160h-26.667969zm0 0" fill="#5a6470"/>
<path d="m180.09375 233.332031h26.667969v160h-26.667969zm0 0" fill="#5a6470"/>
<path d="m126.757812 273.332031h26.667969v120h-26.667969zm0 0" fill="#5a6470"/>
<path d="m140.09375 273.332031-40-40h80zm0 0" fill="#f6bf9b"/>
<path d="m146.761719 160h-33.335938c-11.042969 0-20 8.953125-20 20s8.957031 20 20 20c11.046875 0 20-8.953125 20-20-.019531-2.277344-.4375-4.53125-1.226562-6.667969h14.5625zm0 0" fill="#e9686a"/>
<path d="m53.425781 80h33.332031v13.332031h-33.332031zm0 0" fill="#5a6470"/>
<path d="m133.425781 133.332031h13.335938v13.335938h-13.335938zm0 0" fill="#5a6470"/>
<path d="m200.09375 213.332031v-173.332031h-120v40h-26.667969v13.332031h26.667969v120zm-106.667969-160h93.335938v26.667969h-93.335938zm0 126.667969v-86.667969h93.335938v106.667969h-93.335938zm0 0"/><path d="m106.761719 106.667969h13.332031v13.332031h-13.332031zm0 0"/><path d="m160.09375 106.667969h13.332031v13.332031h-13.332031zm0 0"/><path d="m240.09375 400v-66.667969h13.332031c14.722657-.015625 26.652344-11.945312 26.667969-26.664062v-186.667969h-53.332031v106.667969h-200c-14.722657.015625-26.652344 11.945312-26.667969 26.664062v146.667969zm0-266.667969h26.667969v93.335938h-26.667969zm0 106.667969h26.667969v66.667969c-.007813 7.359375-5.972657 13.324219-13.335938 13.332031h-13.332031zm-26.667969 0h13.335938v146.667969h-13.335938zm-26.667969 0h13.335938v146.667969h-13.335938zm-39.996093 146.667969h-13.335938v-106.667969h13.335938zm26.664062 0h-13.332031v-106.667969h13.332031zm0-120h-17.238281l17.238281-17.242188zm-9.425781-26.667969-23.90625 23.90625-23.90625-23.90625zm-57.238281 9.425781 17.238281 17.242188h-17.238281zm0 30.574219h13.332031v106.667969h-13.332031zm-26.667969-40h13.332031v146.667969h-13.332031zm-26.667969 0h13.335938v146.667969h-13.335938zm-40 13.332031c.007813-7.359375 5.972657-13.324219 13.335938-13.332031h13.332031v80h-26.667969zm0 80h26.667969v53.335938h-26.667969zm0 0"/><path d="m280.09375 93.332031h13.332031v-93.332031h-80v93.332031h13.335938c0 14.730469 11.9375 26.667969 26.664062 26.667969 14.726563 0 26.667969-11.9375 26.667969-26.667969zm-26.667969 13.335938c-7.363281 0-13.332031-5.972657-13.332031-13.335938s5.96875-13.332031 13.332031-13.332031 13.335938 5.96875 13.335938 13.332031c-.011719 7.363281-5.976563 13.328125-13.335938 13.335938zm0-40c-9.484375.027343-18.230469 5.109375-22.957031 13.332031h-3.707031v-66.667969h53.332031v66.667969h-3.710938c-4.722656-8.222656-13.472656-13.304688-22.957031-13.332031zm0 0"/><path d="m113.425781 200c11.042969-.011719 19.988281-8.960938 20-20-.023437-2.277344-.4375-4.53125-1.226562-6.667969h14.5625v-13.332031h-33.335938c-11.042969 0-20 8.953125-20 20s8.957031 20 20 20zm0-26.667969c3.683594 0 6.667969 2.984375 6.667969 6.667969 0 3.679688-2.984375 6.667969-6.667969 6.667969-3.679687 0-6.667969-2.988281-6.667969-6.667969.003907-3.679688 2.988282-6.664062 6.667969-6.667969zm0 0"/>
<path d="m133.425781 133.332031h13.335938v13.335938h-13.335938zm0 0"/></svg>